<mxfile host="app.diagrams.net" modified="2022-07-05T07:16:38.639Z" agent="5.0 (Windows NT 10.0; Win64; x64) AppleWebKit/537.36 (KHTML, like Gecko) Chrome/103.0.0.0 Safari/537.36" etag="IR0qieAHpyCEXrR9cm_o" version="20.0.4" type="github">
  <diagram id="vAAK2xrO6STrd_4l6eV2" name="Page-1">
    <mxGraphModel dx="2062" dy="1154" grid="1" gridSize="11" guides="1" tooltips="1" connect="1" arrows="1" fold="1" page="1" pageScale="1" pageWidth="1169" pageHeight="1654" background="none" math="0" shadow="0">
      <root>
        <mxCell id="0" />
        <mxCell id="1" parent="0" />
        <mxCell id="zpYF9BhXSGG7KeCdsb85-27" value="" style="group" parent="1" vertex="1" connectable="0">
          <mxGeometry x="528" y="88" width="363" height="308" as="geometry" />
        </mxCell>
        <mxCell id="zpYF9BhXSGG7KeCdsb85-1" value="运营商" style="swimlane;fillColor=#CCFFE6;fontColor=#333333;strokeColor=#666666;shadow=0;rounded=0;" parent="zpYF9BhXSGG7KeCdsb85-27" vertex="1">
          <mxGeometry width="363" height="308" as="geometry" />
        </mxCell>
        <mxCell id="zpYF9BhXSGG7KeCdsb85-2" value="区域冗余量" style="rounded=0;whiteSpace=wrap;html=1;fillColor=#dae8fc;strokeColor=#6c8ebf;" parent="zpYF9BhXSGG7KeCdsb85-1" vertex="1">
          <mxGeometry y="25.29032258064516" width="362.9999999999999" height="44.25806451612903" as="geometry" />
        </mxCell>
        <mxCell id="zpYF9BhXSGG7KeCdsb85-14" value="用户1卖出容限1000W" style="rounded=0;whiteSpace=wrap;html=1;fillColor=#d5e8d4;strokeColor=#82b366;" parent="zpYF9BhXSGG7KeCdsb85-1" vertex="1">
          <mxGeometry y="69.54838709677419" width="104.07692307692308" height="39.74193548387097" as="geometry" />
        </mxCell>
        <mxCell id="zpYF9BhXSGG7KeCdsb85-15" value="用户2卖出容限2000W" style="rounded=0;whiteSpace=wrap;html=1;fillColor=#fff2cc;strokeColor=#d6b656;" parent="zpYF9BhXSGG7KeCdsb85-1" vertex="1">
          <mxGeometry x="93.07692307692307" y="109.29032258064515" width="169.23076923076925" height="39.74193548387097" as="geometry" />
        </mxCell>
        <mxCell id="zpYF9BhXSGG7KeCdsb85-16" value="用户3卖出容限2000W" style="rounded=0;whiteSpace=wrap;html=1;fillColor=#e1d5e7;strokeColor=#9673a6;" parent="zpYF9BhXSGG7KeCdsb85-1" vertex="1">
          <mxGeometry x="38.92307692307692" y="188.7741935483871" width="169.23076923076925" height="39.74193548387097" as="geometry" />
        </mxCell>
        <mxCell id="zpYF9BhXSGG7KeCdsb85-17" value="用户1卖出容限1000W" style="rounded=0;whiteSpace=wrap;html=1;fillColor=#d5e8d4;strokeColor=#82b366;" parent="zpYF9BhXSGG7KeCdsb85-1" vertex="1">
          <mxGeometry x="104.07692307692308" y="149.03225806451613" width="104.07692307692308" height="39.74193548387097" as="geometry" />
        </mxCell>
        <mxCell id="zpYF9BhXSGG7KeCdsb85-19" value="" style="endArrow=classic;startArrow=classic;endFill=1;startFill=1;endSize=8;html=1;verticalAlign=bottom;labelBackgroundColor=none;strokeWidth=1;rounded=0;" parent="zpYF9BhXSGG7KeCdsb85-1" edge="1">
          <mxGeometry width="160" relative="1" as="geometry">
            <mxPoint x="38.92307692307692" y="248.38709677419354" as="sourcePoint" />
            <mxPoint x="204.76923076923077" y="248.38709677419354" as="targetPoint" />
          </mxGeometry>
        </mxCell>
        <mxCell id="zpYF9BhXSGG7KeCdsb85-10" value="" style="html=1;verticalAlign=bottom;labelBackgroundColor=none;endArrow=block;endFill=1;rounded=0;" parent="zpYF9BhXSGG7KeCdsb85-1" edge="1">
          <mxGeometry width="160" relative="1" as="geometry">
            <mxPoint x="0.4230769230769231" y="283.61290322580646" as="sourcePoint" />
            <mxPoint x="363.42307692307685" y="283.61290322580646" as="targetPoint" />
          </mxGeometry>
        </mxCell>
        <mxCell id="zpYF9BhXSGG7KeCdsb85-11" value="0:00" style="text;html=1;align=center;verticalAlign=middle;resizable=0;points=[];autosize=1;strokeColor=none;fillColor=none;" parent="zpYF9BhXSGG7KeCdsb85-1" vertex="1">
          <mxGeometry x="-4.653846153846152" y="278.19354838709677" width="44" height="33" as="geometry" />
        </mxCell>
        <mxCell id="zpYF9BhXSGG7KeCdsb85-12" value="24::00" style="text;html=1;align=center;verticalAlign=middle;resizable=0;points=[];autosize=1;strokeColor=none;fillColor=none;" parent="zpYF9BhXSGG7KeCdsb85-1" vertex="1">
          <mxGeometry x="310.96153846153834" y="278.64516129032256" width="55" height="33" as="geometry" />
        </mxCell>
        <mxCell id="zpYF9BhXSGG7KeCdsb85-13" value="12:00" style="text;html=1;align=center;verticalAlign=middle;resizable=0;points=[];autosize=1;strokeColor=none;fillColor=none;" parent="zpYF9BhXSGG7KeCdsb85-1" vertex="1">
          <mxGeometry x="142.57692307692307" y="278.19354838709677" width="55" height="33" as="geometry" />
        </mxCell>
        <mxCell id="zpYF9BhXSGG7KeCdsb85-28" value="不接受卖单&lt;br&gt;时间段" style="rounded=0;whiteSpace=wrap;html=1;shadow=0;fillColor=#e51400;strokeColor=#B20000;fontColor=#ffffff;opacity=70;" parent="zpYF9BhXSGG7KeCdsb85-1" vertex="1">
          <mxGeometry x="262.31" y="69.55" width="100.69" height="205.45" as="geometry" />
        </mxCell>
        <mxCell id="zpYF9BhXSGG7KeCdsb85-20" value="卖出的有效时间" style="text;html=1;align=center;verticalAlign=middle;resizable=0;points=[];autosize=1;strokeColor=none;fillColor=none;" parent="zpYF9BhXSGG7KeCdsb85-27" vertex="1">
          <mxGeometry x="68.11538461538461" y="242.06451612903226" width="110" height="33" as="geometry" />
        </mxCell>
        <mxCell id="zpYF9BhXSGG7KeCdsb85-29" value="用户1（卖方）" style="shape=umlActor;verticalLabelPosition=bottom;verticalAlign=top;html=1;rounded=0;shadow=0;fillColor=#CCFFE6;opacity=70;" parent="1" vertex="1">
          <mxGeometry x="556.5" y="561" width="30" height="60" as="geometry" />
        </mxCell>
        <mxCell id="zpYF9BhXSGG7KeCdsb85-31" value="用户2（卖方）" style="shape=umlActor;verticalLabelPosition=bottom;verticalAlign=top;html=1;rounded=0;shadow=0;fillColor=#CCFFE6;opacity=70;" parent="1" vertex="1">
          <mxGeometry x="683.5" y="561" width="30" height="60" as="geometry" />
        </mxCell>
        <mxCell id="zpYF9BhXSGG7KeCdsb85-34" value="用户3（卖方）" style="shape=umlActor;verticalLabelPosition=bottom;verticalAlign=top;html=1;rounded=0;shadow=0;fillColor=#CCFFE6;opacity=70;" parent="1" vertex="1">
          <mxGeometry x="815.5" y="561" width="30" height="60" as="geometry" />
        </mxCell>
        <mxCell id="zpYF9BhXSGG7KeCdsb85-35" value="用户4（买方）" style="shape=umlActor;verticalLabelPosition=bottom;verticalAlign=top;html=1;rounded=0;shadow=0;fillColor=#CCFFE6;opacity=70;" parent="1" vertex="1">
          <mxGeometry x="234" y="187" width="30" height="60" as="geometry" />
        </mxCell>
        <mxCell id="zpYF9BhXSGG7KeCdsb85-39" value="" style="shape=singleArrow;direction=north;whiteSpace=wrap;html=1;rounded=0;shadow=0;fillColor=#CCFFE6;opacity=70;" parent="1" vertex="1">
          <mxGeometry x="671" y="429" width="60" height="100" as="geometry" />
        </mxCell>
        <mxCell id="zpYF9BhXSGG7KeCdsb85-40" value="卖出申请" style="text;html=1;align=center;verticalAlign=middle;resizable=0;points=[];autosize=1;strokeColor=none;fillColor=none;" parent="1" vertex="1">
          <mxGeometry x="682" y="467" width="77" height="33" as="geometry" />
        </mxCell>
        <mxCell id="zpYF9BhXSGG7KeCdsb85-41" value="" style="shape=singleArrow;whiteSpace=wrap;html=1;rounded=0;shadow=0;fillColor=#CCFFE6;opacity=70;" parent="1" vertex="1">
          <mxGeometry x="352" y="197" width="100" height="60" as="geometry" />
        </mxCell>
        <mxCell id="zpYF9BhXSGG7KeCdsb85-42" value="增容申请" style="text;html=1;align=center;verticalAlign=middle;resizable=0;points=[];autosize=1;strokeColor=none;fillColor=none;" parent="1" vertex="1">
          <mxGeometry x="356" y="181" width="77" height="33" as="geometry" />
        </mxCell>
      </root>
    </mxGraphModel>
  </diagram>
</mxfile>
